<?xml version="1.0" encoding="UTF-8"?>
<!DOCTYPE svg PUBLIC "-//W3C//DTD SVG 1.1//EN" "http://www.w3.org/Graphics/SVG/1.1/DTD/svg11.dtd">
<!-- Creator: CorelDRAW 2020 (64 Bit) -->
<svg xmlns="http://www.w3.org/2000/svg" xml:space="preserve" width="16.9332mm" height="21.1666mm" version="1.1" style="shape-rendering:geometricPrecision; text-rendering:geometricPrecision; image-rendering:optimizeQuality; fill-rule:evenodd; clip-rule:evenodd"
viewBox="0 0 1693.32 2116.66"
 xmlns:xlink="http://www.w3.org/1999/xlink"
 xmlns:xodm="http://www.corel.com/coreldraw/odm/2003">
 <defs>
  <style type="text/css">
   <![CDATA[
    .fil0 {fill:#454545;fill-rule:nonzero}
    .fil1 {fill:#5E696B;fill-rule:nonzero}
    .fil7 {fill:#65717E;fill-rule:nonzero}
    .fil5 {fill:#8E8C85;fill-rule:nonzero}
    .fil9 {fill:#A3A3A3;fill-rule:nonzero}
    .fil2 {fill:#B5B5B5;fill-rule:nonzero}
    .fil8 {fill:#E5E5E5;fill-rule:nonzero}
    .fil4 {fill:#E6743C;fill-rule:nonzero}
    .fil3 {fill:#F38B19;fill-rule:nonzero}
    .fil6 {fill:#FCA83D;fill-rule:nonzero}
   ]]>
  </style>
 </defs>
 <g id="Camada_x0020_1">
  <metadata id="CorelCorpID_0Corel-Layer"/>
  <g id="_1781165240672">
   <path class="fil0" d="M1380.84 2008.29c0,-36.16 -29.32,-65.49 -65.48,-65.49 -36.17,0 -65.49,29.33 -65.49,65.49 0,36.17 29.32,65.49 65.49,65.49 36.16,0 65.48,-29.32 65.48,-65.49z"/>
   <path class="fil1" d="M1340.75 2008.29c0,-14.02 -11.37,-25.39 -25.39,-25.39 -14.03,0 -25.39,11.37 -25.39,25.39 0,14.03 11.36,25.4 25.39,25.4 14.02,0 25.39,-11.37 25.39,-25.4z"/>
   <path class="fil0" d="M792.31 2008.29c0,-36.16 -29.32,-65.49 -65.49,-65.49 -36.16,0 -65.48,29.33 -65.48,65.49 0,36.17 29.32,65.49 65.48,65.49 36.17,0 65.49,-29.32 65.49,-65.49z"/>
   <path class="fil1" d="M752.21 2008.29c0,-14.02 -11.36,-25.39 -25.39,-25.39 -14.02,0 -25.39,11.37 -25.39,25.39 0,14.03 11.37,25.4 25.39,25.4 14.03,0 25.39,-11.37 25.39,-25.4z"/>
   <path class="fil0" d="M480.38 2008.29c0,-36.16 -29.31,-65.49 -65.48,-65.49 -36.17,0 -65.49,29.33 -65.49,65.49 0,36.17 29.32,65.49 65.49,65.49 36.17,0 65.48,-29.32 65.48,-65.49z"/>
   <path class="fil1" d="M440.29 2008.29c0,-14.02 -11.37,-25.39 -25.39,-25.39 -14.02,0 -25.39,11.37 -25.39,25.39 0,14.03 11.37,25.4 25.39,25.4 14.02,0 25.39,-11.37 25.39,-25.4z"/>
   <path class="fil2" d="M680.83 511.66c0,0 19.14,-46.47 41.01,-51.93 21.87,-5.45 338.96,-8.21 355.37,-2.72 16.4,5.45 24.68,53.73 24.68,53.73l-421.06 0.92z"/>
   <path class="fil3" d="M913.83 1986.82l-472.62 0c-81.78,0 -148.08,-66.3 -148.08,-148.09l0 -1179.9c0,-81.77 66.3,-148.09 148.08,-148.09l472.62 0c81.78,0 148.08,66.32 148.08,148.09l0 1179.9c0,81.79 -66.3,148.09 -148.08,148.09z"/>
   <path class="fil4" d="M586.63 1986.82l35.54 0c-12.26,0 -24.17,-1.55 -35.54,-4.42l0 4.42z"/>
   <path class="fil4" d="M622.17 510.74l-35.54 0 0 4.44c11.37,-2.9 23.28,-4.44 35.54,-4.44z"/>
   <path class="fil5" d="M442.1 1842.29l0 -1187.01c0,-79.83 64.71,-144.54 144.53,-144.54l-44.41 0c-79.83,0 -144.54,64.71 -144.54,144.54l0 1187.01c0,79.82 64.71,144.53 144.54,144.53l44.41 0c-79.82,0 -144.53,-64.71 -144.53,-144.53z"/>
   <path class="fil4" d="M1101.89 510.74l-79.96 0c79.83,0 144.54,64.71 144.54,144.54l0 1187.01c0,79.82 -64.71,144.53 -144.54,144.53l79.96 0c79.82,0 144.53,-64.71 144.53,-144.53l0 -1187.01c0,-79.83 -64.71,-144.54 -144.53,-144.54z"/>
   <path class="fil2" d="M477.64 1842.29l0 -1187.01c0,-67.57 46.36,-124.26 108.99,-140.1l0 -4.44c-79.82,0 -144.53,64.71 -144.53,144.54l0 1187.01c0,79.82 64.71,144.53 144.53,144.53l0 -4.42c-62.63,-15.84 -108.99,-72.56 -108.99,-140.11z"/>
   <path class="fil6" d="M1252.1 1986.82l-472.62 0c-81.78,0 -148.08,-66.3 -148.08,-148.09l0 -1179.9c0,-81.77 66.3,-148.09 148.08,-148.09l472.62 0c81.78,0 148.08,66.32 148.08,148.09l0 1179.9c0,81.79 -66.3,148.09 -148.08,148.09z"/>
   <path class="fil7" d="M818.79 506.8c0,0 24.87,67.43 41.04,119.98 15.07,49 91.12,50.68 220.86,50.68 138.31,0 199.83,-10.19 205.99,-47.09 6.15,-36.91 -11.77,-70.63 -35.32,-120.65l-432.57 -2.92z"/>
   <path class="fil0" d="M871.76 527.37c5.88,26.49 18.36,56.69 30.25,75.62 16.34,26.06 91.94,31.02 190.66,30.76 86.32,-0.23 159.9,-6.15 159.9,-30.76 0,-24.58 -33.57,-72.66 -33.57,-72.66l-347.24 -2.96z"/>
   <path class="fil8" d="M951.59 625.9l-6.53 -471.87 -43.05 0 4.8 454.55c8.69,7.92 24.1,13.47 44.78,17.32z"/>
   <path class="fil8" d="M1198.3 628.49l-1.08 -474.46 -43.05 0 -1.08 478.34c16.59,-0.85 31.86,-2.1 45.21,-3.88z"/>
   <path class="fil0" d="M945.06 154.03l-43.05 0c0,0 -9.71,-90.64 14.89,-102.93 24.6,-12.32 238.85,-11.8 272.67,8.38 15.89,9.5 7.65,94.55 7.65,94.55l-43.05 0 -2.85 -50.38 -205.94 -3.98 -0.32 54.36z"/>
   <path class="fil9" d="M462.24 806.91l-83.67 0c-12.38,0 -22.41,-10.05 -22.41,-22.41l0 -64.55c0,-12.35 10.03,-22.41 22.41,-22.41l83.67 0c12.37,0 22.4,10.06 22.4,22.41l0 64.55c0,12.36 -10.03,22.41 -22.4,22.41z"/>
   <path class="fil9" d="M462.24 1774.59l-83.67 0c-12.38,0 -22.41,-10.03 -22.41,-22.41l0 -64.53c0,-12.37 10.03,-22.4 22.41,-22.4l83.67 0c12.37,0 22.4,10.03 22.4,22.4l0 64.53c0,12.38 -10.03,22.41 -22.4,22.41z"/>
   <path class="fil2" d="M441.64 806.91l-83.67 0c-12.37,0 -22.41,-10.05 -22.41,-22.41l0 -64.55c0,-12.35 10.04,-22.41 22.41,-22.41l83.67 0c12.37,0 22.4,10.06 22.4,22.41l0 64.55c0,12.36 -10.03,22.41 -22.4,22.41z"/>
   <path class="fil2" d="M441.64 1774.59l-83.67 0c-12.37,0 -22.41,-10.03 -22.41,-22.41l0 -64.53c0,-12.37 10.04,-22.4 22.41,-22.4l83.67 0c12.37,0 22.4,10.03 22.4,22.4l0 64.53c0,12.38 -10.03,22.41 -22.4,22.41z"/>
   <path class="fil5" d="M404 1730.85l-24.6 0c-6.79,0 -12.3,-5.51 -12.3,-12.3 0,-6.8 5.51,-12.3 12.3,-12.3l24.6 0c6.79,0 12.3,5.5 12.3,12.3 0,6.79 -5.51,12.3 -12.3,12.3z"/>
   <path class="fil3" d="M749.82 1842.93l0 0c-13.95,0 -25.25,-11.3 -25.25,-25.25l0 -1040.21c0,-13.94 11.3,-25.24 25.25,-25.24 13.94,0 25.24,11.3 25.24,25.24l0 1040.21c0,13.95 -11.3,25.25 -25.24,25.25z"/>
   <path class="fil3" d="M886.86 1842.93l0 0c-13.95,0 -25.25,-11.3 -25.25,-25.25l0 -1040.21c0,-13.94 11.3,-25.24 25.25,-25.24l0 0c13.94,0 25.24,11.3 25.24,25.24l0 1040.21c0,13.95 -11.3,25.25 -25.24,25.25z"/>
   <path class="fil3" d="M1023.9 1842.93l0 0c-13.94,0 -25.25,-11.3 -25.25,-25.25l0 -1040.21c0,-13.94 11.31,-25.24 25.25,-25.24 13.94,0 25.24,11.3 25.24,25.24l0 1040.21c0,13.95 -11.3,25.25 -25.24,25.25z"/>
   <path class="fil3" d="M1160.94 1842.93l0 0c-13.94,0 -25.25,-11.3 -25.25,-25.25l0 -1040.21c0,-13.94 11.31,-25.24 25.25,-25.24 13.94,0 25.24,11.3 25.24,25.24l0 1040.21c0,13.95 -11.3,25.25 -25.24,25.25z"/>
   <path class="fil3" d="M1297.98 1842.93l0 0c-13.94,0 -25.24,-11.3 -25.24,-25.25l0 -1040.21c0,-13.94 11.3,-25.24 25.24,-25.24 13.94,0 25.25,11.3 25.25,25.24l0 1040.21c0,13.95 -11.31,25.25 -25.25,25.25z"/>
   <path class="fil5" d="M406.32 763.17l-29.24 0c-5.52,0 -9.98,-4.47 -9.98,-9.99l0 -4.63c0,-5.53 4.46,-10 9.98,-10l29.24 0c5.51,0 9.98,4.47 9.98,10l0 4.63c0,5.52 -4.47,9.99 -9.98,9.99z"/>
   <path class="fil7" d="M627.52 1863.35c0,0 -49.62,62.33 6.29,124.13l117.3 -0.53 -123.59 -123.6z"/>
   <path class="fil5" d="M627.52 1863.35c0,0 155.56,-32.63 148.41,123.47 0,0 -110.15,23.67 -148.41,-123.47z"/>
   <path class="fil5" d="M295.45 1865.2c0,0 93.25,-7.48 123.95,118.92 0,0 -98.82,18.43 -123.95,-118.92z"/>
   <path class="fil5" d="M1400.03 1863.35c0,0 -155.57,-32.63 -148.41,123.47 0,0 110.15,23.67 148.41,-123.47z"/>
  </g>
 </g>
</svg>
